# xmcd CD database file
#
# Track frame offsets:
#	150
#	13907
#	30682
#	42657
#	55112
#	65080
#	78700
#	90102
#	98930
#	110897
#	121487
#	130900
#	144885
#	159415
#	171717
#	181475
#	191870
#	200702
#	209867
#	221132
#	231835
#
# Disc length: 3252 seconds
#
# Revision: 0
# Processed by: cddbd v1.5.2PL0 Copyright (c) Steve Scherf et al.
# Submitted via: CDex 1.70beta2
#
DISCID=4e0cb215
DTITLE=Glen Campbell - Gr. Hits and Finest Perf. [CD2)
DYEAR=1900
DGENRE=Country
TTITLE0=Theme From 'Love Story' (Where Do I Begin)
TTITLE1=Both Sides Now
TTITLE2=Homeward Bound
TTITLE3=Words
TTITLE4=Without Her
TTITLE5=Mary In The Morning
TTITLE6=Twelfth Of Never
TTITLE7=Ann
TTITLE8=Turn Around, Look At Me
TTITLE9=Elusive Butterfly (Of Love)
TTITLE10=Let It Be Me (with Bobbie Gentry)
TTITLE11=The Hand That Rocks The Cradle (with Steve Wariner)
TTITLE12=Medley - I Say A Little Prayer and By The Time I Get To Phoenix (with Anne Murray)
TTITLE13=Something 'Bout You Baby I Like (with Rita Coolidge)
TTITLE14=Less Of Me (with Bobbie Gentry)
TTITLE15=This Land Is Your Land
TTITLE16=The Ballad Of Jed Clampett
TTITLE17=Green, Green
TTITLE18=Wimoweh (The Lion Sleeps Tonight)
TTITLE19=500 Miles
TTITLE20=Guess I'm Dumb
EXTD=
EXTT0=
EXTT1=
EXTT2=
EXTT3=
EXTT4=
EXTT5=
EXTT6=
EXTT7=
EXTT8=
EXTT9=
EXTT10=
EXTT11=
EXTT12=
EXTT13=
EXTT14=
EXTT15=
EXTT16=
EXTT17=
EXTT18=
EXTT19=
EXTT20=
PLAYORDER=
